<?xml version="1.0" encoding="UTF-8" standalone="no"?>
<!-- Created with Inkscape (http://www.inkscape.org/) -->

<svg
   width="1023.9999"
   height="1023.9999"
   viewBox="0 0 270.93331 270.93331"
   version="1.1"
   id="svg1"
   xml:space="preserve"
   xmlns="http://www.w3.org/2000/svg"
   xmlns:svg="http://www.w3.org/2000/svg"><defs
     id="defs1" /><g
     id="layer1"
     transform="translate(-908.54476,-1.0583344)"><rect
       style="fill:#fdf6e6;fill-opacity:1;stroke-width:1.6482"
       id="rect27"
       width="270.93332"
       height="270.93332"
       x="908.5448"
       y="1.0583344"
       ry="0" /><g
       id="g55"><g
         id="g30"
         transform="matrix(1.2074093,0,0,1.2074093,872.00605,-26.31538)"
         style="fill:#20bda6;fill-opacity:1"><path
           id="path27"
           style="fill:#364652;fill-opacity:1;stroke-width:5.19238"
           d="m 139.41973,44.917833 c -7.99464,0 -15.98994,1.11309 -20.45485,3.33759 -8.92983,4.44902 -10.48974,6.47077 -9.95742,14.46885 l 2.23148,33.52216 c 0.49326,7.411257 19.49412,27.053917 29.02927,27.053917 9.53514,0 26.83724,-19.64266 27.33051,-27.053917 l 2.23148,-33.52216 c 0.53232,-7.99808 -1.02762,-10.01983 -9.95745,-14.46885 -4.46491,-2.2245 -12.45841,-3.33759 -20.45302,-3.33759 z" /><path
           id="path28"
           style="fill:#20bda6;fill-opacity:1;stroke-width:5.19238"
           d="m 229.36859,134.86849 c 0,-7.99464 -1.11309,-15.98994 -3.3376,-20.45485 -4.44901,-8.92983 -6.47076,-10.48974 -14.46884,-9.95742 l -33.52216,2.23148 c -7.41126,0.49326 -27.05392,19.49412 -27.05392,29.02927 0,9.53514 19.64266,26.83724 27.05392,27.33051 l 33.52216,2.23148 c 7.99808,0.53232 10.01983,-1.02762 14.46884,-9.95745 2.22451,-4.46491 3.3376,-12.45841 3.3376,-20.45302 z" /><path
           id="path29"
           style="fill:#364652;fill-opacity:1;stroke-width:5.19238"
           d="m 139.41793,224.81735 c 7.99464,0 15.98994,-1.11309 20.45485,-3.3376 8.92983,-4.44901 10.48974,-6.47076 9.95742,-14.46884 l -2.23148,-33.52216 c -0.49327,-7.41126 -19.49413,-27.05392 -29.02927,-27.05392 -9.53514,0 -26.83725,19.64266 -27.33051,27.05392 l -2.23148,33.52216 c -0.53232,7.99808 1.02762,10.01983 9.95745,14.46884 4.46491,2.22451 12.45841,3.3376 20.45302,3.3376 z" /><path
           id="path30"
           style="fill:#20bda6;fill-opacity:1;stroke-width:5.19238"
           d="m 49.469066,134.86669 c 0,7.99464 1.11309,15.98994 3.33759,20.45485 4.44902,8.92983 6.47077,10.48974 14.46885,9.95742 l 33.522164,-2.23148 c 7.41126,-0.49327 27.05392,-19.49413 27.05392,-29.02927 0,-9.53514 -19.64266,-26.83725 -27.05392,-27.33051 l -33.522164,-2.23148 c -7.99808,-0.53232 -10.01983,1.02762 -14.46885,9.95745 -2.2245,4.46491 -3.33759,12.45841 -3.33759,20.45302 z" /><rect
           style="fill:#000000;fill-opacity:1;stroke:none;stroke-width:1.24233;stroke-opacity:1"
           id="rect118"
           width="141.31485"
           height="104.12673"
           x="-970.13324"
           y="-666.1853"
           ry="13.110006" /></g><path
         d="m -213.14099,155.55189 a 2.6537211,2.6537211 42.407474 0 0 2.77104,2.53097 h 32.50277 c 1.49672,0 2.70165,1.20492 2.70165,2.70164 v 33.18955 a 2.7710399,2.7710399 45 0 0 2.77104,2.77104 c 1.50086,0 2.71782,-1.24064 2.71814,-2.77104 0.003,-12.27958 0.003,-31.16617 0.003,-39.01865 0,-1.20467 -0.96988,-2.17455 -2.17454,-2.17455 l -38.52243,0 a 2.7710399,2.7710399 135 0 0 -2.77104,2.77104 z"
         style="fill:#cccccc;fill-opacity:1;stroke-width:1.5"
         id="path31"
         transform="matrix(0.2358789,-0.2358789,0.2358789,0.2358789,1044.2662,-33.618359)" /><path
         d="m -213.14099,155.55189 a 2.6537211,2.6537211 42.407474 0 0 2.77104,2.53097 h 32.50277 c 1.49672,0 2.70165,1.20492 2.70165,2.70164 v 33.18955 a 2.7710399,2.7710399 45 0 0 2.77104,2.77104 c 1.50086,0 2.71782,-1.24064 2.71814,-2.77104 0.003,-12.27958 0.003,-31.16617 0.003,-39.01865 0,-1.20467 -0.96988,-2.17455 -2.17454,-2.17455 l -38.52243,0 a 2.7710399,2.7710399 135 0 0 -2.77104,2.77104 z"
         style="fill:#333333;stroke-width:1.5"
         id="path32"
         transform="matrix(0.2358789,0.2358789,-0.2358789,0.2358789,1210.4848,140.44934)" /><path
         d="m -213.14099,155.55189 a 2.6537211,2.6537211 42.407474 0 0 2.77104,2.53097 h 32.50277 c 1.49672,0 2.70165,1.20492 2.70165,2.70164 v 33.18955 a 2.7710399,2.7710399 45 0 0 2.77104,2.77104 c 1.50086,0 2.71782,-1.24064 2.71814,-2.77104 0.003,-12.27958 0.003,-31.16617 0.003,-39.01865 0,-1.20467 -0.96988,-2.17455 -2.17454,-2.17455 l -38.52243,0 a 2.7710399,2.7710399 135 0 0 -2.77104,2.77104 z"
         style="fill:#cccccc;fill-opacity:1;stroke-width:1.5"
         id="path33"
         transform="matrix(-0.2358789,0.2358789,-0.2358789,-0.2358789,1036.4171,306.66795)" /><path
         d="m -213.14099,155.55189 a 2.6537211,2.6537211 42.407474 0 0 2.77104,2.53097 h 32.50277 c 1.49672,0 2.70165,1.20492 2.70165,2.70164 v 33.18955 a 2.7710399,2.7710399 45 0 0 2.77104,2.77104 c 1.50086,0 2.71782,-1.24064 2.71814,-2.77104 0.003,-12.27958 0.003,-31.16617 0.003,-39.01865 0,-1.20467 -0.96988,-2.17455 -2.17454,-2.17455 l -38.52243,0 a 2.7710399,2.7710399 135 0 0 -2.77104,2.77104 z"
         style="fill:#333333;stroke-width:1.5"
         id="path34"
         transform="matrix(-0.2358789,-0.2358789,0.2358789,-0.2358789,870.19848,132.60024)" /></g></g></svg>
