<?xml version="1.0" encoding="UTF-8" standalone="no"?>
<!-- Created with Inkscape (http://www.inkscape.org/) -->

<svg
   width="40"
   height="40"
   viewBox="0 0 10.583333 10.583333"
   version="1.1"
   id="svg1"
   xml:space="preserve"
   xmlns="http://www.w3.org/2000/svg"
   xmlns:svg="http://www.w3.org/2000/svg"><defs
     id="defs1" /><g
     id="layer1"
     transform="translate(-183.70784,-1461.2762)"><g
       id="g134"
       transform="matrix(0.26458333,0,0,0.26458333,183.70784,1461.2761)"><path
         fill="none"
         d="M 0,0 H 40 V 40 H 0 Z"
         id="path1" /><g
         id="g5"><path
           d="M 19.7,19.2 4.3,35.3 c 0,0 0,0 0,0 0.5,1.7 2.1,3 4,3 0.8,0 1.5,-0.2 2.1,-0.6 v 0 l 17.4,-9.9 z"
           fill="#ea4335"
           id="path2"
           style="fill:none;stroke:#364652;stroke-width:1.5;stroke-dasharray:none;stroke-opacity:1" /><path
           d="m 35.3,16.4 v 0 l -7.5,-4.3 -8.4,7.4 8.5,8.3 7.5,-4.2 c 1.3,-0.7 2.2,-2.1 2.2,-3.6 -0.1,-1.5 -1,-2.9 -2.3,-3.6 z"
           fill="#fbbc04"
           id="path3"
           style="fill:none;stroke:#364652;stroke-width:1.5;stroke-dasharray:none;stroke-opacity:1" /><path
           d="M 4.3,4.7 C 4.2,5 4.2,5.4 4.2,5.8 v 28.5 c 0,0.4 0,0.7 0.1,1.1 l 16,-15.7 z"
           fill="#4285f4"
           id="path4"
           style="fill:none;stroke:#364652;stroke-width:1.5;stroke-dasharray:none;stroke-opacity:1" /><path
           d="m 19.8,20 8,-7.9 L 10.5,2.3 C 9.9,1.9 9.1,1.7 8.3,1.7 c -1.9,0 -3.6,1.3 -4,3 0,0 0,0 0,0 z"
           fill="#34a853"
           id="path5-0"
           style="fill:none;stroke:#364652;stroke-width:1.5;stroke-dasharray:none;stroke-opacity:1" /></g></g></g></svg>
